<svg height="833" viewBox="0 0 1306 833" width="1306" xmlns="http://www.w3.org/2000/svg" xmlns:xlink="http://www.w3.org/1999/xlink"><defs><path id="a" d="m.5 0h1305v833h-1305z"/><linearGradient id="b" x1="0%" x2="100%" y1="50%" y2="50%"><stop offset="0" stop-color="#505050"/><stop offset="1" stop-color="#6c6c6c"/></linearGradient><linearGradient id="c" x1="0%" x2="100%" y1="50%" y2="50%"><stop offset="0" stop-color="#222"/><stop offset="1" stop-color="#1f1f1f"/></linearGradient><linearGradient id="d" x1="100%" x2="0%" y1="50%" y2="50%"><stop offset="0" stop-color="#393939"/><stop offset="1" stop-color="#303030"/></linearGradient><linearGradient id="e" x1="100%" x2="0%" y1="50%" y2="50%"><stop offset="0" stop-color="#565656"/><stop offset="1" stop-color="#7a7a7a"/></linearGradient><linearGradient id="f" x1="0%" x2="100%" y1="50%" y2="50%"><stop offset="0" stop-color="#3f3f3f"/><stop offset="1"/></linearGradient><mask id="g" fill="#fff"><use fill="#fff" fill-rule="evenodd" xlink:href="#a"/></mask></defs><g fill="none" fill-rule="evenodd"><use fill="#000" xlink:href="#a"/><g fill="url(#b)"><circle cx="434" cy="489" mask="url(#g)" opacity=".345354" r="359"/><circle cx="434" cy="489" mask="url(#g)" opacity=".4" r="199"/><ellipse cx="434" cy="489" mask="url(#g)" rx="90" ry="90.054054"/></g><path d="m-47.721811 832.516216c327.178029 0 506.030601-443.516216 845.528076-443.516216s552.457605 443.516216 849.973935 443.516216z" fill="url(#c)" mask="url(#g)"/><path d="m-638.274807 837.018919c302.17349 0 467.357277-389.483784 780.908702-389.483784s510.236105 389.483784 785.014789 389.483784z" fill="url(#d)" mask="url(#g)"/><path d="m490.957482 832.516216c295.816404 0 457.525076-389.483784 764.480048-389.483784 306.95497 0 499.50182 389.483784 768.49975 389.483784z" fill="url(#e)" mask="url(#g)" opacity=".8"/><path d="m-641.291017 933.827027c230.550321 0 356.581148-351.210811 595.8125304-351.210811 239.2313816 0 389.2965516 351.210811 598.9453646 351.210811z" fill="url(#f)" mask="url(#g)"/></g></svg>