<svg height="833" viewBox="0 0 1840 833" width="1840" xmlns="http://www.w3.org/2000/svg" xmlns:xlink="http://www.w3.org/1999/xlink"><defs><path id="a" d="m0 0h1840v833h-1840z"/><linearGradient id="b" x1="0%" x2="100%" y1="50%" y2="50%"><stop offset="0" stop-color="#373737"/><stop offset="1" stop-color="#494949"/></linearGradient><linearGradient id="c" x1="50%" x2="50%" y1="100%" y2="0%"><stop offset="0" stop-color="#393939"/><stop offset="1" stop-color="#303030"/></linearGradient><linearGradient id="d" x1="50%" x2="50%" y1="0%" y2="100%"><stop offset="0" stop-color="#565656"/><stop offset="1" stop-color="#7a7a7a"/></linearGradient><mask id="e" fill="#fff"><use fill="#fff" fill-rule="evenodd" xlink:href="#a"/></mask></defs><g fill="none" fill-rule="evenodd"><use fill="#000" xlink:href="#a"/><path d="m-841.347634 833c276.698057 0 427.955643-421 715.072391-421 287.116749 0 467.219472 421 718.832305 421z" fill="url(#b)" mask="url(#e)" opacity=".52"/><path d="m1235.65237 421c276.69805 0 427.95564-421 715.07239-421s467.21947 421 718.8323 421z" fill="url(#b)" mask="url(#e)" opacity=".52" transform="matrix(1 0 0 -1 0 421)"/><rect fill="url(#c)" height="895" mask="url(#e)" rx="6.8" width="500" x="865" y="239"/><rect fill="url(#d)" height="895" mask="url(#e)" opacity=".8" rx="6.8" width="500" x="475" y="119"/></g></svg>